<?xml version="1.0" encoding="UTF-8"?>
<svg xmlns="http://www.w3.org/2000/svg" xmlns:xlink="http://www.w3.org/1999/xlink" 
width="128px" 
height="128px" 
viewBox="0 0 128 128" 
version="1.1" 
style="rotate: 90deg; scale:0.20;">
<g id="surface1">
<path style="fill-rule:nonzero;fill:rgb(100%,100%,100%);fill-opacity:1;stroke-width:20;stroke-linecap:butt;stroke-linejoin:miter;stroke:rgb(0%,0%,0%);stroke-opacity:1;stroke-miterlimit:4;" d="M 54.4375 29.796875 C 54.03125 29.78125 53.640625 29.796875 53.234375 29.796875 C 48.546875 29.96875 45.3125 31.546875 43.125 33.734375 C 40.1875 36.671875 38.359375 41.421875 39.53125 49.046875 C 40.703125 56.65625 45.21875 66.796875 54.8125 77.984375 C 122.703125 157.1875 187.734375 233.546875 238.515625 289.953125 C 250.78125 303.59375 262.203125 316.03125 272.640625 327.09375 C 284.734375 295.1875 307.203125 272.9375 335.53125 262.375 C 324.703125 252.171875 312.59375 241.0625 299.34375 229.125 C 242.9375 178.359375 166.578125 113.3125 87.375 45.421875 C 76.1875 35.828125 66.046875 31.328125 58.421875 30.140625 C 57.109375 29.9375 55.78125 29.828125 54.4375 29.796875 Z M 350.21875 276.4375 C 319.765625 284.0625 296.984375 305.625 286.609375 341.65625 C 292.265625 347.4375 297.5625 352.734375 302.390625 357.359375 C 309.96875 364.625 316.484375 370.359375 321.609375 374.3125 C 323.375 357.09375 331.640625 341.25 343.25 329.625 C 353.84375 319 367.75 311.625 382.375 310.53125 C 378.5 305.703125 373.234375 299.78125 366.75 293.015625 C 361.90625 287.96875 356.328125 282.390625 350.21875 276.4375 Z M 385.578125 328.390625 C 375.171875 328.515625 364.640625 333.65625 355.984375 342.34375 C 344.453125 353.90625 337.3125 371.1875 339.71875 388.03125 C 345.0625 425.375 363.46875 453.84375 389.1875 469.28125 C 411.90625 482.90625 440.640625 486.625 472.828125 476.265625 C 448.609375 472.25 426.34375 445.546875 424.625 425.609375 C 435.265625 438.421875 448.5625 450.15625 463.0625 457.359375 C 453.171875 434.78125 453.859375 411.90625 451.96875 393.03125 C 450.609375 379.515625 448.078125 368.0625 440.59375 357.875 C 433.109375 347.703125 420.171875 338.078125 395.84375 329.96875 C 392.53125 328.859375 389.0625 328.328125 385.578125 328.390625 Z M 385.578125 328.390625 " transform="matrix(0.25,0,0,0.25,0,0)"/>
</g>
</svg>
